<?xml version="1.0" encoding="UTF-8" standalone="no"?>
<!DOCTYPE svg PUBLIC "-//W3C//DTD SVG 1.1//EN"
 "http://www.w3.org/Graphics/SVG/1.1/DTD/svg11.dtd">
<!-- Generated by graphviz version 2.40.1 (20161225.0304)
 -->
<!-- Title: graphname Pages: 1 -->
<svg width="247pt" height="123pt"
 viewBox="0.00 0.00 246.74 122.60" xmlns="http://www.w3.org/2000/svg" xmlns:xlink="http://www.w3.org/1999/xlink">
<g id="graph0" class="graph" transform="scale(1 1) rotate(0) translate(4 118.6)">
<title>graphname</title>
<polygon fill="#ffffff" stroke="transparent" points="-4,4 -4,-118.6 242.7366,-118.6 242.7366,4 -4,4"/>
<!-- P1 -->
<g id="node1" class="node">
<title>P1</title>
<polygon fill="none" stroke="#000000" points="89.7114,-114.4019 -.238,-114.4019 -.238,-73.1981 89.7114,-73.1981 89.7114,-114.4019"/>
<text text-anchor="start" x="8" y="-98" font-family="Times,serif" font-size="14.00" fill="#000000">Original data</text>
<text text-anchor="middle" x="44.7367" y="-81.2" font-family="Times,serif" font-size="14.00" fill="#000000">count=234</text>
</g>
<!-- P2 -->
<g id="node2" class="node">
<title>P2</title>
<polygon fill="none" stroke="#000000" points="79.2365,-36 10.2369,-36 10.2369,0 79.2365,0 79.2365,-36"/>
<text text-anchor="middle" x="44.7367" y="-13.8" font-family="Times,serif" font-size="14.00" fill="#000000">count=18</text>
</g>
<!-- P1&#45;&gt;P2 -->
<g id="edge1" class="edge">
<title>P1&#45;&gt;P2</title>
<path fill="none" stroke="#000000" d="M44.7367,-73.0873C44.7367,-64.7698 44.7367,-55.0512 44.7367,-46.1124"/>
<polygon fill="#000000" stroke="#000000" points="48.2368,-46.1078 44.7367,-36.1078 41.2368,-46.1079 48.2368,-46.1078"/>
</g>
<!-- M1 -->
<g id="node3" class="node">
<title>M1</title>
<polygon fill="none" stroke="#000000" points="238.7365,-111.8 162.7369,-111.8 162.7369,-75.8 238.7365,-75.8 238.7365,-111.8"/>
<text text-anchor="middle" x="200.7367" y="-89.6" font-family="Times,serif" font-size="14.00" fill="#000000">count=216</text>
</g>
<!-- P1&#45;&gt;M1 -->
<g id="edge2" class="edge">
<title>P1&#45;&gt;M1</title>
<path fill="none" stroke="#000000" d="M89.8584,-93.8C109.4753,-93.8 132.4883,-93.8 152.449,-93.8"/>
<polygon fill="#000000" stroke="#000000" points="152.5748,-97.3001 162.5748,-93.8 152.5748,-90.3001 152.5748,-97.3001"/>
<text text-anchor="middle" x="126.1051" y="-101" font-family="Times,serif" font-size="14.00" fill="#000000">Exclusion</text>
</g>
</g>
</svg>
