<?xml version="1.0" encoding="UTF-8" standalone="no"?>
<!DOCTYPE svg PUBLIC "-//W3C//DTD SVG 1.1//EN"
 "http://www.w3.org/Graphics/SVG/1.1/DTD/svg11.dtd">
<!-- Generated by graphviz version 2.40.1 (20161225.0304)
 -->
<!-- Title: graphname Pages: 1 -->
<svg width="310pt" height="224pt"
 viewBox="0.00 0.00 310.40 223.60" xmlns="http://www.w3.org/2000/svg" xmlns:xlink="http://www.w3.org/1999/xlink">
<g id="graph0" class="graph" transform="scale(1 1) rotate(0) translate(4 219.6)">
<title>graphname</title>
<polygon fill="#ffffff" stroke="transparent" points="-4,4 -4,-219.6 306.4042,-219.6 306.4042,4 -4,4"/>
<!-- P1 -->
<g id="node1" class="node">
<title>P1</title>
<polygon fill="none" stroke="#000000" points="89.7114,-215.8014 -.238,-215.8014 -.238,-156.9986 89.7114,-156.9986 89.7114,-215.8014"/>
<text text-anchor="start" x="8" y="-199" font-family="Times,serif" font-size="14.00" fill="#000000">Original data</text>
<text text-anchor="start" x="8" y="-182.2" font-family="Times,serif" font-size="14.00" fill="#000000">count=234</text>
<text text-anchor="middle" x="44.7367" y="-165.4" font-family="Times,serif" font-size="14.00" fill="#000000">models=38</text>
</g>
<!-- P2 -->
<g id="node2" class="node">
<title>P2</title>
<polygon fill="none" stroke="#000000" points="80.5725,-120.0019 8.9009,-120.0019 8.9009,-78.7981 80.5725,-78.7981 80.5725,-120.0019"/>
<text text-anchor="start" x="17.0692" y="-103.6" font-family="Times,serif" font-size="14.00" fill="#000000">count=18</text>
<text text-anchor="middle" x="44.7367" y="-86.8" font-family="Times,serif" font-size="14.00" fill="#000000">models=3</text>
</g>
<!-- P1&#45;&gt;P2 -->
<g id="edge1" class="edge">
<title>P1&#45;&gt;P2</title>
<path fill="none" stroke="#000000" d="M44.7367,-156.9458C44.7367,-148.3244 44.7367,-138.8785 44.7367,-130.1773"/>
<polygon fill="#000000" stroke="#000000" points="48.2368,-130.0384 44.7367,-120.0385 41.2368,-130.0385 48.2368,-130.0384"/>
</g>
<!-- M1 -->
<g id="node4" class="node">
<title>M1</title>
<polygon fill="none" stroke="#000000" points="288.0724,-207.0019 209.401,-207.0019 209.401,-165.7981 288.0724,-165.7981 288.0724,-207.0019"/>
<text text-anchor="start" x="217.5692" y="-190.6" font-family="Times,serif" font-size="14.00" fill="#000000">count=216</text>
<text text-anchor="middle" x="248.7367" y="-173.8" font-family="Times,serif" font-size="14.00" fill="#000000">models=35</text>
</g>
<!-- P1&#45;&gt;M1 -->
<g id="edge3" class="edge">
<title>P1&#45;&gt;M1</title>
<path fill="none" stroke="#000000" d="M89.5054,-186.4C121.9241,-186.4 165.747,-186.4 199.2127,-186.4"/>
<polygon fill="#000000" stroke="#000000" points="199.242,-189.9001 209.2419,-186.4 199.2419,-182.9001 199.242,-189.9001"/>
<text text-anchor="middle" x="149.5213" y="-193.6" font-family="Times,serif" font-size="14.00" fill="#000000">Exclude non&#45;Audi</text>
</g>
<!-- P3 -->
<g id="node3" class="node">
<title>P3</title>
<polygon fill="none" stroke="#000000" points="80.5725,-41.4019 8.9009,-41.4019 8.9009,-.1981 80.5725,-.1981 80.5725,-41.4019"/>
<text text-anchor="start" x="17.0692" y="-25" font-family="Times,serif" font-size="14.00" fill="#000000">count=17</text>
<text text-anchor="middle" x="44.7367" y="-8.2" font-family="Times,serif" font-size="14.00" fill="#000000">models=3</text>
</g>
<!-- P2&#45;&gt;P3 -->
<g id="edge2" class="edge">
<title>P2&#45;&gt;P3</title>
<path fill="none" stroke="#000000" d="M44.7367,-78.7488C44.7367,-70.5105 44.7367,-60.8489 44.7367,-51.802"/>
<polygon fill="#000000" stroke="#000000" points="48.2368,-51.5862 44.7367,-41.5862 41.2368,-51.5862 48.2368,-51.5862"/>
</g>
<!-- M2 -->
<g id="node5" class="node">
<title>M2</title>
<polygon fill="none" stroke="#000000" points="302.5725,-120.0019 230.9009,-120.0019 230.9009,-78.7981 302.5725,-78.7981 302.5725,-120.0019"/>
<text text-anchor="start" x="239.0692" y="-103.6" font-family="Times,serif" font-size="14.00" fill="#000000">count=1</text>
<text text-anchor="middle" x="266.7367" y="-86.8" font-family="Times,serif" font-size="14.00" fill="#000000">models=0</text>
</g>
<!-- P2&#45;&gt;M2 -->
<g id="edge4" class="edge">
<title>P2&#45;&gt;M2</title>
<path fill="none" stroke="#000000" d="M80.4048,-99.4C118.4829,-99.4 178.9552,-99.4 220.6251,-99.4"/>
<polygon fill="#000000" stroke="#000000" points="220.789,-102.9001 230.789,-99.4 220.789,-95.9001 220.789,-102.9001"/>
<text text-anchor="middle" x="155.7367" y="-106.6" font-family="Times,serif" font-size="14.00" fill="#000000">Exclude 8&#45;cylinder cars</text>
</g>
</g>
</svg>
